<svg width="24" height="25" viewBox="0 0 24 25" fill="none" xmlns="http://www.w3.org/2000/svg">
<path d="M16.5 3.22852L7.5 3.22852C5.01472 3.22852 3 5.24323 3 7.72852L3 16.7285C3 19.2138 5.01472 21.2285 7.5 21.2285H16.5C18.9853 21.2285 21 19.2138 21 16.7285V7.72852C21 5.24323 18.9853 3.22852 16.5 3.22852Z" stroke="#635681" stroke-width="1.5" stroke-linecap="round" stroke-linejoin="round"/>
<path d="M15.5998 11.6613C15.7109 12.4103 15.5829 13.1753 15.2342 13.8474C14.8854 14.5195 14.3336 15.0646 13.6572 15.405C12.9809 15.7454 12.2144 15.8639 11.4668 15.7436C10.7192 15.6233 10.0286 15.2704 9.49314 14.7349C8.95771 14.1995 8.60474 13.5089 8.48445 12.7613C8.36415 12.0137 8.48264 11.2472 8.82308 10.5708C9.16351 9.89447 9.70855 9.34267 10.3807 8.99392C11.0528 8.64517 11.8178 8.51723 12.5668 8.6283C13.3308 8.74159 14.0382 9.09762 14.5843 9.64377C15.1305 10.1899 15.4865 10.8973 15.5998 11.6613Z" stroke="#635681" stroke-width="1.5" stroke-linecap="round" stroke-linejoin="round"/>
<path d="M16.95 7.27832H16.959" stroke="#635681" stroke-width="1.5" stroke-linecap="round" stroke-linejoin="round"/>
</svg>
